<svg width="24" height="24" viewBox="0 0 24 24" fill="none" xmlns="http://www.w3.org/2000/svg">
<g clip-path="url(#clip0_4009_6204)">
<path d="M12 24C18.6274 24 24 18.6274 24 12C24 5.37258 18.6274 0 12 0C5.37258 0 0 5.37258 0 12C0 18.6274 5.37258 24 12 24Z" fill="white"/>
<path d="M19.9999 12.2801V15.9003C19.9986 16.1261 19.939 16.3477 19.8268 16.5433C19.7146 16.739 19.5537 16.9021 19.3599 17.0168L16.2349 18.8231C16.0414 18.9389 15.8202 19 15.5949 19C15.3696 19 15.1484 18.9389 14.9549 18.8231L11.8299 17.0168C11.6361 16.9021 11.4752 16.739 11.363 16.5433C11.2509 16.3477 11.1912 16.1261 11.1899 15.9003V14.8843L12.7899 13.9522V15.7184L15.5899 17.3492L18.3899 15.7184V12.4645L15.5899 10.8337L9.0299 14.6472C8.83454 14.7576 8.6141 14.8157 8.38988 14.8157C8.16566 14.8157 7.94525 14.7576 7.74989 14.6472L4.62488 12.8333C4.43405 12.7169 4.27628 12.5532 4.16681 12.3579C4.05734 12.1625 3.99986 11.9422 3.99989 11.7181V8.09786C4.00118 7.87211 4.06085 7.65056 4.17302 7.45487C4.28522 7.25918 4.44608 7.09604 4.63988 6.98144L7.76489 5.17508C7.95884 5.06045 8.17982 5 8.40488 5C8.62997 5 8.85095 5.06045 9.0449 5.17508L12.1699 6.98144C12.3637 7.09604 12.5246 7.25918 12.6367 7.45487C12.7489 7.65056 12.8086 7.87211 12.8099 8.09786V9.11393L11.1999 10.0397V8.28353L8.3999 6.65279L5.59988 8.28353V11.5337L8.3999 13.1644L14.9599 9.35102C15.1552 9.24056 15.3757 9.18254 15.5999 9.18254C15.8241 9.18254 16.0445 9.24056 16.2399 9.35102L19.3649 11.1649C19.5576 11.2801 19.7173 11.4433 19.8286 11.6386C19.9399 11.8341 19.9989 12.055 19.9999 12.2801Z" fill="#7B3FE4"/>
</g>
<defs>
<clipPath id="clip0_4009_6204">
<rect width="24" height="24" fill="white"/>
</clipPath>
</defs>
</svg>
